<svg width="24" height="25" viewBox="0 0 24 25" fill="none" xmlns="http://www.w3.org/2000/svg">
<path d="M23.644 22.0855L18.563 17.0045C18.3132 16.7556 17.975 16.6159 17.6224 16.6159C17.2698 16.6159 16.9315 16.7556 16.6817 17.0045C15.3429 18.299 13.6124 19.1129 11.7614 19.3185C9.91044 19.5242 8.04352 19.11 6.45315 18.141C4.86278 17.1719 3.63879 15.7026 2.97294 13.9633C2.3071 12.2241 2.23701 10.3131 2.77366 8.52969C3.31031 6.74631 4.42337 5.19133 5.93848 4.10835C7.45359 3.02537 9.28515 2.47557 11.1462 2.54508C13.0073 2.6146 14.7927 3.2995 16.2228 4.49249C17.6529 5.68548 18.6469 7.31917 19.049 9.1376C19.3371 10.4568 19.3075 11.8257 18.9624 13.1312C18.9216 13.2841 18.9114 13.4435 18.9323 13.6004C18.9531 13.7573 19.0047 13.9085 19.084 14.0454C19.1633 14.1824 19.2688 14.3024 19.3945 14.3985C19.5201 14.4947 19.6635 14.5652 19.8164 14.6059C20.1253 14.6882 20.4541 14.6445 20.7307 14.4843C21.0073 14.3242 21.2089 14.0607 21.2912 13.7519C21.9541 11.2604 21.7077 8.61416 20.5962 6.28784C19.4847 3.96153 17.5808 2.10728 15.226 1.05762C12.8711 0.00795858 10.2193 -0.168445 7.7462 0.560044C5.27305 1.28853 3.14032 2.87426 1.73048 5.03285C0.320642 7.19143 -0.274082 9.78168 0.0529645 12.3391C0.380011 14.8964 1.60743 17.2537 3.51511 18.988C5.42279 20.7223 7.88593 21.7203 10.4628 21.803C13.0397 21.8857 15.5617 21.0476 17.5767 19.4391L21.9407 23.7984C22.0525 23.9104 22.1852 23.9993 22.3314 24.0599C22.4775 24.1206 22.6342 24.1518 22.7924 24.1518C22.9506 24.1518 23.1073 24.1206 23.2534 24.0599C23.3996 23.9993 23.5323 23.9104 23.644 23.7984C23.7575 23.6865 23.8476 23.5531 23.9091 23.4061C23.9706 23.2591 24.0023 23.1013 24.0023 22.9419C24.0023 22.7826 23.9706 22.6248 23.9091 22.4778C23.8476 22.3307 23.7575 22.1974 23.644 22.0855Z" fill="gray"/>
<path d="M14.4348 14.5747C14.2426 14.3961 13.9966 14.2865 13.7353 14.2629C13.474 14.2394 13.2123 14.3034 12.9913 14.4447C12.3675 14.8296 11.652 15.0403 10.9191 15.0546C10.1863 15.069 9.46296 14.8867 8.82454 14.5265C8.60811 14.4002 8.35659 14.3475 8.10765 14.3761C7.85871 14.4047 7.62574 14.5132 7.44362 14.6853L7.37145 14.7527C7.24223 14.8758 7.14317 15.0271 7.08199 15.1947C7.0208 15.3624 6.99915 15.5419 7.0187 15.7193C7.03826 15.8967 7.0985 16.0672 7.19473 16.2175C7.29097 16.3678 7.4206 16.4939 7.57354 16.5859C8.60217 17.179 9.77325 17.4799 10.9604 17.4561C12.1475 17.4324 13.3056 17.0849 14.3097 16.4512C14.4564 16.3579 14.5803 16.2329 14.6722 16.0854C14.7641 15.9379 14.8216 15.7716 14.8405 15.5988C14.8595 15.426 14.8393 15.2512 14.7816 15.0872C14.7239 14.9233 14.63 14.7744 14.507 14.6516L14.4348 14.5747Z" fill="#fb693d"/>
</svg>
